<svg width="94" height="82" viewBox="0 0 94 82" fill="none" xmlns="http://www.w3.org/2000/svg">
<path d="M91.5 77C92.8807 77 94 78.1193 94 79.5C94 80.8807 92.8807 82 91.5 82H2.5C1.11929 82 0 80.8807 0 79.5C0 78.1193 1.11929 77 2.5 77H91.5ZM72.3281 12.2939C76.0863 16.3206 80.5748 23.4103 81.8945 31.7725C83.2377 40.2836 81.2626 49.9873 72.2461 58.7891C63.1093 67.7082 53.1202 68.5272 44.5156 65.832C37.1811 63.5345 30.8861 58.7163 26.7715 54.4287L15.6182 63.9053C14.5659 64.799 12.9886 64.6703 12.0947 63.6182C11.201 62.5659 11.3297 60.9886 12.3818 60.0947L70.6992 10.5498L72.3281 12.2939ZM30.5908 51.1846C34.2732 54.9639 39.7899 59.1122 46.0098 61.0605C52.5389 63.1057 59.8696 62.7639 66.9883 56.8086L48.5029 35.9668L30.5908 51.1846ZM52.3135 32.7285L70.5645 53.3047C76.7696 46.2792 77.9699 38.9824 76.9551 32.5518C76.0004 26.5029 73.0628 21.1331 70.2197 17.5176L52.3135 32.7285ZM91.5 0C92.8807 0 94 1.11929 94 2.5C94 3.88071 92.8807 5 91.5 5H2.5C1.11929 5 0 3.88071 0 2.5C0 1.11929 1.11929 0 2.5 0H91.5Z" fill="white"/>
</svg>
